<svg width="200" height="200" viewBox="0 0 200 200" xmlns="http://www.w3.org/2000/svg">
  <!-- Background Circle -->
  <circle cx="100" cy="100" r="90" fill="none" stroke="url(#gradient-bg)" stroke-width="5"/>
  
  <!-- Sun Rays -->
  <g transform="translate(100, 100)">
    <line x1="0" y1="-70" x2="0" y2="-90" stroke="#00d4ff" stroke-width="4" transform="rotate(0)"/>
    <line x1="0" y1="-70" x2="0" y2="-90" stroke="#00d4ff" stroke-width="4" transform="rotate(45)"/>
    <line x1="0" y1="-70" x2="0" y2="-90" stroke="#00d4ff" stroke-width="4" transform="rotate(90)"/>
    <line x1="0" y1="-70" x2="0" y2="-90" stroke="#00d4ff" stroke-width="4" transform="rotate(135)"/>
    <line x1="0" y1="-70" x2="0" y2="-90" stroke="#00d4ff" stroke-width="4" transform="rotate(180)"/>
    <line x1="0" y1="-70" x2="0" y2="-90" stroke="#00d4ff" stroke-width="4" transform="rotate(225)"/>
    <line x1="0" y1="-70" x2="0" y2="-90" stroke="#00d4ff" stroke-width="4" transform="rotate(270)"/>
    <line x1="0" y1="-70" x2="0" y2="-90" stroke="#00d4ff" stroke-width="4" transform="rotate(315)"/>
  </g>
  
  <!-- Central Sun Circle with Cylinder -->
  <circle cx="100" cy="100" r="40" fill="url(#gradient-sun)"/>
  <rect x="85" y="90" width="30" height="20" rx="5" fill="#7c3aed"/>
  
  <!-- Gradient Definitions -->
  <defs>
    <linearGradient id="gradient-bg" x1="0%" y1="0%" x2="100%" y2="100%">
      <stop offset="0%" style="stop-color:#0a0a0f;stop-opacity:1"/>
      <stop offset="50%" style="stop-color:#111118;stop-opacity:1"/>
      <stop offset="100%" style="stop-color:#1a1a24;stop-opacity:1"/>
    </linearGradient>
    <linearGradient id="gradient-sun" x1="0%" y1="0%" x2="100%" y2="100%">
      <stop offset="0%" style="stop-color:#00d4ff;stop-opacity:1"/>
      <stop offset="100%" style="stop-color:#fbbf24;stop-opacity:1"/>
    </linearGradient>
  </defs>
</svg>